<?xml version="1.0" encoding="utf-8"?>
<!-- Generator: Adobe Illustrator 16.0.4, SVG Export Plug-In . SVG Version: 6.00 Build 0)  -->
<!DOCTYPE svg PUBLIC "-//W3C//DTD SVG 1.1//EN" "http://www.w3.org/Graphics/SVG/1.1/DTD/svg11.dtd">
<svg xmlns="http://www.w3.org/2000/svg" viewBox="0 0 32 32">
  <path fill="#a4a4a4" style="text-indent:0;text-align:start;line-height:normal;text-transform:none;block-progression:tb;-inkscape-font-specification:Bitstream Vera Sans" d="M 3 7 L 3 8 L 3 24 L 3 25 L 4 25 L 5 25 L 5 26 L 7 26 L 7 25 L 25 25 L 25 26 L 27 26 L 27 25 L 28 25 L 29 25 L 29 24 L 29 8 L 29 7 L 28 7 L 4 7 L 3 7 z M 5 9 L 27 9 L 27 23 L 5 23 L 5 9 z M 7 11 L 7 12 L 7 20 L 7 21 L 8 21 L 20 21 L 21 21 L 21 20 L 21 12 L 21 11 L 20 11 L 8 11 L 7 11 z M 24 11 C 23.447715 11 23 11.447715 23 12 C 23 12.552285 23.447715 13 24 13 C 24.552285 13 25 12.552285 25 12 C 25 11.447715 24.552285 11 24 11 z M 9 13 L 19 13 L 19 19 L 9 19 L 9 13 z M 24 15 C 23.447715 15 23 15.447715 23 16 C 23 16.552285 23.447715 17 24 17 C 24.552285 17 25 16.552285 25 16 C 25 15.447715 24.552285 15 24 15 z" color="#000" overflow="visible" font-family="Bitstream Vera Sans"></path>
</svg>
